<?xml version="1.0" encoding="UTF-8" standalone="yes"?>
<svg xmlns="http://www.w3.org/2000/svg" viewBox="0 0 24 24" width="48" height="48" fill="#fff">
  <path d="M 3 5 C 1.897 5 1 5.897 1 7 L 1 18 C 1 19.103 1.897 20 3 20 L 21 20 C 22.103 20 23 19.103 23 18 L 23 7 C 23 5.897 22.103 5 21 5 L 3 5 z M 7.3457031 10 L 8.6464844 10 L 10 15 L 8.9375 15 L 8.6796875 14 L 7.3105469 14 L 7.0527344 15 L 6 15 L 7.3457031 10 z M 12.490234 10 C 13.913234 10.041 14 11.282906 14 11.503906 L 13.03125 11.503906 C 13.03125 11.400906 13.048656 10.806641 12.472656 10.806641 C 12.297656 10.806641 11.905547 10.884187 11.935547 11.367188 C 11.964547 11.810188 12.547297 12.019406 12.654297 12.066406 C 12.878297 12.148406 13.987094 12.642391 13.996094 13.650391 C 13.998094 13.864391 13.942766 14.985 12.509766 15 C 10.950766 15.017 10.845703 13.675437 10.845703 13.398438 L 11.820312 13.398438 C 11.820312 13.545438 11.832766 14.256172 12.509766 14.201172 C 12.916766 14.167172 13.005531 13.87425 13.019531 13.65625 C 13.042531 13.28925 12.692266 13.068625 12.322266 12.890625 C 11.802266 12.640625 10.979844 12.333375 10.964844 11.359375 C 10.951844 10.482375 11.596234 9.975 12.490234 10 z M 15 10 L 16.5 10 C 17.328 10 18 10.672 18 11.5 C 18 12.328 17.328 13 16.5 13 L 16 13 L 16 15 L 15 15 L 15 10 z M 16 11 L 16 12 L 16.5 12 C 16.776 12 17 11.776 17 11.5 C 17 11.224 16.776 11 16.5 11 L 16 11 z M 7.9921875 11.353516 L 7.5683594 13 L 8.4199219 13 L 7.9921875 11.353516 z"/>
</svg>
